<svg id="Layer_1" enable-background="new 0 0 512 512" height="512" viewBox="0 0 512 512" width="512" xmlns="http://www.w3.org/2000/svg"><g id="_x31_650_x2C__Employee_x2C__group_x2C__management_x2C__organization_x2C__team"><path d="m430.122 179.421c27.346-15.461 45.854-44.809 45.854-78.405 0-49.619-40.364-89.988-89.987-89.988-52.904 0-95.164 45.873-89.48 99.638-25.422-12.868-55.582-12.873-81.014 0 5.685-53.647-36.468-99.638-89.48-99.638-49.613 0-89.988 40.369-89.988 89.988 0 33.597 18.508 62.944 45.863 78.405-44.39 17.618-75.857 60.986-75.857 111.577v109.984c0 5.522 4.473 10.002 10 10.002h119.982v79.986c0 5.522 4.482 10.001 10 10.001h219.971c5.526 0 10-4.479 10-10.001v-79.986h119.991c5.519 0 9.99-4.479 9.99-10.002v-109.984c.001-50.591-31.466-93.959-75.845-111.577zm-44.135-148.398c38.598 0 69.985 31.399 69.985 69.992 0 38.597-31.389 69.996-69.985 69.996-18.938 0-36.586-7.433-49.849-20.92-3.674-7.169-8.282-13.771-13.653-19.67-4.287-9.239-6.494-19.122-6.494-29.406 0-38.592 31.399-69.992 69.996-69.992zm-60.035 161.67c-1.24 39.11-32.884 68.307-69.947 68.307-38.734 0-69.996-31.58-69.996-69.996 0-38.588 31.398-69.987 69.996-69.987 38.938 0 70.904 32.092 69.947 71.676zm-269.926-91.677c0-38.593 31.399-69.992 69.986-69.992 38.598 0 69.996 31.399 69.996 69.992 0 10.284-2.197 20.167-6.494 29.406-5.371 5.899-9.981 12.501-13.653 19.67-13.263 13.487-30.901 20.92-49.849 20.92-38.586 0-69.986-31.4-69.986-69.996zm-30.002 289.966v-99.984c0-55.137 44.857-99.994 99.988-99.994 14.133 0 27.688 2.861 40.404 8.497 2.822 30.002 20.432 55.767 45.453 69.908-44.389 17.618-75.855 60.991-75.855 111.577v9.996zm329.971 89.994h-199.979v-99.989c0-55.137 44.857-99.988 99.989-99.988 55.133 0 99.99 44.854 99.99 99.988zm129.981-89.994h-109.99v-9.996c0-50.586-31.468-93.959-75.855-111.577 25.021-14.142 42.631-39.906 45.453-69.908 12.717-5.636 26.281-8.497 40.404-8.497 55.131 0 99.987 44.857 99.987 99.994v99.984z"/></g></svg>