<svg id="Layer_1" enable-background="new 0 0 66 66" height="512" viewBox="0 0 66 66" width="512" xmlns="http://www.w3.org/2000/svg"><g style="fill:none;stroke:#000;stroke-width:2;stroke-linecap:round;stroke-linejoin:round;stroke-miterlimit:10"><g><path d="m51.6 48.7v10.9c0 2.4-2 4.4-4.4 4.4h-34.8c-2.5 0-4.4-2-4.4-4.4v-47.8c0-2.4 2-4.4 4.4-4.4h34.8c2.4 0 4.4 2 4.4 4.4v20.2"/><path d="m45.4 6.4v1h-33c-2.4 0-4.4 2-4.4 4.4v46.3h-1c-2.4 0-4.4-2-4.4-4.4v-47.3c-.1-2.4 1.9-4.4 4.3-4.4h34c2.5 0 4.5 2 4.5 4.4z"/><path d="m45.1 59.5h-15v-2.1c0-1.3 1.1-2.4 2.4-2.4h10.2c1.3 0 2.4 1.1 2.4 2.4z"/><path d="m28.1 59.5h18.9v4.5h-18.9z"/><g><path d="m41.3 36.4h11.1v8.2h-11.1z" transform="matrix(.707 -.707 .707 .707 -14.932 44.992)"/><path d="m45.8 49.9c.7-.7.7-1.9 0-2.6l-5.7-5.7c-.7-.7-1.9-.7-2.6 0-.7.7-.7 1.9 0 2.6l5.7 5.7c.7.7 1.9.7 2.6 0z"/><path d="m56.2 39.5c.7-.7.7-1.9 0-2.6l-5.7-5.7c-.7-.7-1.9-.7-2.6 0-.7.7-.7 1.9 0 2.6l5.7 5.7c.7.7 1.9.7 2.6 0z"/><path d="m62.7 56.4c-1 1-2.7 1-3.7-.1l-10.7-11.5 2.8-2.8 11.5 10.7c1.1.9 1.1 2.6.1 3.7z"/></g><g><path d="m33.4 22.9v7.2l-3.6-2.2-3.7 2.2v-7.2"/><path d="m35.9 17.4c0 3.4-2.7 6.1-6.1 6.1s-6.1-2.7-6.1-6.1 2.7-6.1 6.1-6.1 6.1 2.7 6.1 6.1z"/><path d="m32.3 17.4c0 1.4-1.1 2.5-2.5 2.5s-2.5-1.1-2.5-2.5 1.1-2.5 2.5-2.5c1.3 0 2.5 1.2 2.5 2.5z"/></g><path d="m13.5 35.3h23.5"/><path d="m13.5 40.9h18.4"/><path d="m13.5 46.4h13.6"/><path d="m13.5 52h12.8"/><path d="m13.5 57.6h11.2"/></g><g><path d="m37 51.7v-2.1"/><path d="m33.3 51.4-1.5-1.5"/></g></g></svg>