<svg height="574pt" viewBox="-39 -18 574 574.67448" width="574pt" xmlns="http://www.w3.org/2000/svg"><path d="m10.167969 538.757812h334.878906c6.207031 0 11.230469-5.03125 11.230469-11.230468v-251.882813c0-6.199219-5.023438-11.226562-11.230469-11.226562h-113.695313v-114.710938c0-6.203125-5.023437-11.230469-11.230468-11.230469h-25.511719v-31.046874c0-6.203126-5.027344-11.226563-11.230469-11.226563h-58.828125v-43.296875c0-6.203125-5.027343-11.226562-11.226562-11.226562-6.207031 0-11.230469 5.023437-11.230469 11.226562v43.296875h-55.179688c-6.207031 0-11.230468 5.023437-11.230468 11.226563v31.046874h-25.515625c-6.199219 0-11.226563 5.027344-11.226563 11.230469v377.820313c0 6.199218 5.027344 11.230468 11.226563 11.230468zm323.652343-251.878906v229.421875h-102.46875v-229.425781zm-187.90625 229.421875h-21.363281v-61.15625h21.363281zm-43.820312 0h-17.707031v-61.15625h17.707031zm-43.953125-397.640625h114.015625v19.816406h-114.015625zm-36.742187 42.277344h187.496093v355.363281h-40.523437v-72.386719c0-6.203124-5.027344-11.230468-11.226563-11.230468h-83.984375c-6.207031 0-11.230468 5.027344-11.230468 11.230468v72.386719h-40.53125zm0 0"/><path d="m52.1875 268.757812h124.769531c6.199219 0 11.226563-5.027343 11.226563-11.226562 0-6.207031-5.027344-11.230469-11.226563-11.230469h-124.769531c-6.207031 0-11.230469 5.023438-11.230469 11.230469 0 6.199219 5.023438 11.226562 11.230469 11.226562zm0 0"/><path d="m52.1875 326.152344h124.769531c6.199219 0 11.226563-5.027344 11.226563-11.230469s-5.027344-11.226563-11.226563-11.226563h-124.769531c-6.207031 0-11.230469 5.023438-11.230469 11.226563s5.023438 11.230469 11.230469 11.230469zm0 0"/><path d="m176.957031 383.546875c6.199219 0 11.226563-5.03125 11.226563-11.230469 0-6.203125-5.027344-11.226562-11.226563-11.226562h-124.769531c-6.207031 0-11.230469 5.023437-11.230469 11.226562 0 6.199219 5.023438 11.230469 11.230469 11.230469zm0 0"/><path d="m52.1875 211.363281h124.769531c6.199219 0 11.226563-5.027343 11.226563-11.226562 0-6.207031-5.027344-11.230469-11.226563-11.230469h-124.769531c-6.207031 0-11.230469 5.023438-11.230469 11.230469 0 6.199219 5.023438 11.226562 11.230469 11.226562zm0 0"/><path d="m254.3125 382.300781h53.652344c6.199218 0 11.226562-5.03125 11.226562-11.230469 0-6.203124-5.027344-11.230468-11.226562-11.230468h-53.652344c-6.203125 0-11.230469 5.027344-11.230469 11.230468 0 6.199219 5.027344 11.230469 11.230469 11.230469zm0 0"/><path d="m254.3125 429.710938h53.652344c6.199218 0 11.226562-5.03125 11.226562-11.230469 0-6.203125-5.027344-11.226563-11.226562-11.226563h-53.652344c-6.203125 0-11.230469 5.023438-11.230469 11.226563 0 6.199219 5.027344 11.230469 11.230469 11.230469zm0 0"/><path d="m307.964844 458.410156h-53.652344c-6.203125 0-11.230469 5.023438-11.230469 11.226563 0 6.199219 5.027344 11.230469 11.230469 11.230469h53.652344c6.199218 0 11.226562-5.03125 11.226562-11.230469 0-6.203125-5.027344-11.226563-11.226562-11.226563zm0 0"/><path d="m254.3125 331.144531h53.652344c6.199218 0 11.226562-5.03125 11.226562-11.230469 0-6.203124-5.027344-11.230468-11.226562-11.230468h-53.652344c-6.203125 0-11.230469 5.027344-11.230469 11.230468 0 6.199219 5.027344 11.230469 11.230469 11.230469zm0 0"/><path d="m389.332031 213.261719c49.867188 0 93.074219-34.566407 104.019531-83.214844 10.953126-48.652344-13.28125-98.394531-58.339843-119.753906-45.054688-21.367188-98.902344-8.652344-129.640625 30.617187-25.140625 32.113282-29.753906 75.757813-11.894532 112.421875 17.859376 36.660157 55.070313 59.929688 95.855469 59.929688zm-66.285156-158.496094c25.339844-32.390625 70.367187-41.730469 106.5-22.089844 36.128906 19.644531 52.777344 62.507813 39.375 101.386719-13.398437 38.878906-52.925781 62.378906-93.484375 55.589844-40.554688-6.792969-70.273438-41.894532-70.273438-83.015625-.03125-18.808594 6.265626-37.085938 17.882813-51.871094zm0 0"/><path d="m365.582031 135.617188c3.957031 4.632812 10.890625 5.269531 15.625 1.417968l53.320313-43.378906c3.191406-2.507812 4.78125-6.539062 4.15625-10.550781-.617188-4.003907-3.359375-7.367188-7.15625-8.792969-3.800782-1.421875-8.070313-.6875-11.175782 1.925781l-44.8125 36.460938-15.777343-18.472657c-2.574219-3.152343-6.652344-4.664062-10.652344-3.949218-4.007813.710937-7.316406 3.535156-8.648437 7.378906-1.335938 3.84375-.480469 8.109375 2.222656 11.144531zm0 0"/></svg>